<svg width="32" height="32" viewBox="0 0 32 32" fill="none" xmlns="http://www.w3.org/2000/svg">
<path d="M20 17.3333H12" stroke="#8899A8" stroke-width="1.5" stroke-linecap="round"/>
<path d="M16 13.3333L16 21.3333" stroke="#8899A8" stroke-width="1.5" stroke-linecap="round"/>
<path d="M13.0371 28H18.963C23.1244 28 25.205 28 26.6997 27.0195C27.3467 26.595 27.9023 26.0495 28.3347 25.4142C29.3334 23.9467 29.3334 21.9039 29.3334 17.8182C29.3334 13.7325 29.3334 11.6896 28.3347 10.2221C27.9023 9.58685 27.3467 9.04139 26.6997 8.6169C25.7393 7.98685 24.5369 7.76164 22.696 7.68114C21.8175 7.68114 21.0612 7.02757 20.8889 6.18182C20.6305 4.91318 19.496 4 18.1782 4H13.8218C12.5041 4 11.3696 4.91318 11.1111 6.18182C10.9388 7.02757 10.1825 7.68114 9.30401 7.68114C7.46313 7.76164 6.26076 7.98685 5.30034 8.6169C4.65329 9.04139 4.09773 9.58685 3.66539 10.2221C2.66669 11.6896 2.66669 13.7325 2.66669 17.8182C2.66669 21.9039 2.66669 23.9467 3.66539 25.4142C4.09773 26.0495 4.65329 26.595 5.30034 27.0195C6.795 28 8.87569 28 13.0371 28Z" stroke="#8899A8" stroke-width="1.5"/>
<path d="M25.3333 13.3333H24" stroke="#8899A8" stroke-width="1.5" stroke-linecap="round"/>
</svg>
