<svg width="28" height="29" viewBox="0 0 28 29" fill="none" xmlns="http://www.w3.org/2000/svg">
<path d="M18.3333 19.6639H26.3333M22.3333 15.6639V23.6639M25 11.6639V8.99727C24.9995 8.52963 24.8761 8.07035 24.6421 7.66548C24.408 7.26062 24.0717 6.92442 23.6667 6.6906L14.3333 1.35727C13.9279 1.12322 13.4681 1 13 1C12.5319 1 12.0721 1.12322 11.6667 1.35727L2.33333 6.6906C1.92835 6.92442 1.59197 7.26062 1.35795 7.66548C1.12392 8.07035 1.00048 8.52963 1 8.99727V19.6639C1.00048 20.1316 1.12392 20.5909 1.35795 20.9957C1.59197 21.4006 1.92835 21.7368 2.33333 21.9706L11.6667 27.3039C12.0721 27.538 12.5319 27.6612 13 27.6612C13.4681 27.6612 13.9279 27.538 14.3333 27.3039L17 25.7839M7 4.02393L19 10.8906" stroke="#006E63" stroke-width="2" stroke-linecap="round" stroke-linejoin="round"/>
<path d="M1.38667 7.66393L13 14.3306M13 14.3306L24.6133 7.66393M13 14.3306V27.6639" stroke="#006E63" stroke-width="2" stroke-linecap="round" stroke-linejoin="round"/>
</svg>
