<svg width="64" height="64" viewBox="0 0 64 64" fill="none" xmlns="http://www.w3.org/2000/svg">
<path d="M36 53.3333C36 53.3333 38.6667 53.3333 41.3333 58.6667C41.3333 58.6667 49.8053 45.3333 57.3333 42.6667M18.6667 42.6667H29.3333M18.6667 29.3333H40M17.3333 9.33333C13.184 9.45866 10.712 9.91999 9.00001 11.632C6.65601 13.9787 6.65601 17.752 6.65601 25.3013V42.6507C6.65601 50.2027 6.65601 53.976 9.00001 56.3227C11.3413 58.6667 15.1147 58.6667 22.656 58.6667H29.3227M41.312 9.33333C45.4613 9.45866 47.936 9.91999 49.6453 11.632C51.992 13.9787 51.992 17.752 51.992 25.3013V36" stroke="#006E63" stroke-width="4" stroke-linecap="round" stroke-linejoin="round"/>
<path d="M17.3228 10C17.3228 7.424 19.4134 5.33334 21.9894 5.33334H36.6561C37.8938 5.33334 39.0807 5.825 39.9559 6.70017C40.8311 7.57534 41.3228 8.76233 41.3228 10C41.3228 11.2377 40.8311 12.4247 39.9559 13.2998C39.0807 14.175 37.8938 14.6667 36.6561 14.6667H21.9894C20.7517 14.6667 19.5648 14.175 18.6896 13.2998C17.8144 12.4247 17.3228 11.2377 17.3228 10Z" stroke="#006E63" stroke-width="4" stroke-linecap="round" stroke-linejoin="round"/>
</svg>
